# xmcd
#
# Track frame offsets:
#	150
#	13113
#	25379
#	38041
#	55172
#	76523
#	93576
#	113983
#	126020
#	139434
#	155766
#	174458
#	187057
#	201582
#	210801
#	222053
#	231972
#	248319
#	257449
#	268288
#	282775
#
# Disc length: 3896 seconds
#
# Revision: 0
# Processed by: cddbd v1.5.2PL0 Copyright (c) Steve Scherf et al.
# Submitted via: EZCDAudioConverter 6.0.5.1
#
DISCID=290f3615
DTITLE=Artistes Country Variés - Country D'Hier À Aujourd'hui, La Collection V
DTITLE=ol.1
DYEAR=1900
DGENRE=Country
TTITLE0=Ghislaine et André - Le Jour Où Je T'ai Rencontré
TTITLE1=Roger Gratton - Mon Voisin
TTITLE2=André Brazeau - Le Barbecue
TTITLE3=Christine Richer - Blue Roses
TTITLE4=Herman Huet - Madelinot Amène-Moi
TTITLE5=Aline Lamothe - Que La Lune Est Belle Ce Soir
TTITLE6=N. Fauteux et D. Marcoux - Rêve D'été
TTITLE7=Ghislaine et André - J'entendais Yodley
TTITLE8=Aline Lamothe - La Tournée De La Gaspésie
TTITLE9=Nathalie Fauteux - Une Rose, Rose
TTITLE10=Herman Huet - La Vie De Ma Mère
TTITLE11=Chantal et Réjean Massé - L'Hôtel et La Boisson
TTITLE12=Ginette et Raymond Lavoie - Votre Mariage
TTITLE13=Marie King - Ma P'tite Carole
TTITLE14=Paul Brunelle - Bonne Nuit Mon Amour
TTITLE15=Jenny Fontaine - Un Verre Pour T'oublier
TTITLE16=Julie et Les Frères Duguay - Tour À Tour
TTITLE17=Marie King - Les Cloches De Ma Vallée
TTITLE18=Claude Patry - Lâche Pas La Patate
TTITLE19=Paul Brunelle - Des Roses Rouges Pour Toi Maman
TTITLE20=Hal Willis - Le Lumberjack
EXTD=
EXTT0=
EXTT1=
EXTT2=
EXTT3=
EXTT4=
EXTT5=
EXTT6=
EXTT7=
EXTT8=
EXTT9=
EXTT10=
EXTT11=
EXTT12=
EXTT13=
EXTT14=
EXTT15=
EXTT16=
EXTT17=
EXTT18=
EXTT19=
EXTT20=
PLAYORDER=
